<?xml version="1.0" encoding="UTF-8" standalone="no"?>
<svg
   xmlns:dc="http://purl.org/dc/elements/1.1/"
   xmlns:cc="http://creativecommons.org/ns#"
   xmlns:rdf="http://www.w3.org/1999/02/22-rdf-syntax-ns#"
   xmlns:svg="http://www.w3.org/2000/svg"
   xmlns="http://www.w3.org/2000/svg"
   xmlns:sodipodi="http://sodipodi.sourceforge.net/DTD/sodipodi-0.dtd"
   xmlns:inkscape="http://www.inkscape.org/namespaces/inkscape"
   sodipodi:docname="green-heart-technology-logo.svg"
   inkscape:version="1.0 (4035a4fb49, 2020-05-01)"
   id="svg8"
   version="1.1"
   viewBox="0 0 993.43375 993.43375"
   height="3600"
   width="3600"
   inkscape:export-filename="C:\Users\chris\OneDrive\Documents\green-heart-technology-logo.png"
   inkscape:export-xdpi="33.16"
   inkscape:export-ydpi="33.16">
  <defs
     id="defs2">
    <inkscape:path-effect
       end_linecap_type="zerowidth"
       scale_width="1"
       miter_limit="4"
       linejoin_type="extrp_arc"
       start_linecap_type="zerowidth"
       interpolator_beta="0.2"
       interpolator_type="CubicBezierJohan"
       sort_points="true"
       offset_points="0,0.1322915"
       lpeversion="1"
       is_visible="true"
       id="path-effect38"
       effect="powerstroke" />
    <rect
       id="rect32"
       height="42.333332"
       width="33.261906"
       y="793.75"
       x="509.5119" />
    <rect
       id="rect16"
       height="224.50639"
       width="543.09167"
       y="726.97308"
       x="352.79578" />
  </defs>
  <sodipodi:namedview
     viewbox-width="1000"
     inkscape:window-maximized="1"
     inkscape:window-y="32"
     inkscape:window-x="-8"
     inkscape:window-height="1137"
     inkscape:window-width="1920"
     units="px"
     inkscape:pagecheckerboard="true"
     showgrid="false"
     inkscape:document-rotation="0"
     inkscape:current-layer="layer1"
     inkscape:document-units="px"
     inkscape:cy="2088.8096"
     inkscape:cx="2271.657"
     inkscape:zoom="0.175"
     inkscape:pageshadow="2"
     inkscape:pageopacity="0.0"
     borderopacity="1.0"
     bordercolor="#666666"
     pagecolor="#ffffff"
     id="base"
     fit-margin-top="0"
     fit-margin-left="0"
     fit-margin-right="0"
     fit-margin-bottom="0" />
  <metadata
     id="metadata5">
    <rdf:RDF>
      <cc:Work
         rdf:about="">
        <dc:format>image/svg+xml</dc:format>
        <dc:type
           rdf:resource="http://purl.org/dc/dcmitype/StillImage" />
        <dc:title></dc:title>
      </cc:Work>
    </rdf:RDF>
  </metadata>
  <g
     id="layer1"
     inkscape:groupmode="layer"
     inkscape:label="Layer 1"
     transform="translate(-120.60214,-66.722426)">
    <text
       transform="translate(-3.153758,45.729491)"
       style="font-style:normal;font-variant:normal;font-weight:normal;font-stretch:normal;font-size:10.5833px;line-height:1.25;font-family:sans-serif;-inkscape-font-specification:sans-serif;white-space:pre;shape-inside:url(#rect16);fill:#000000;fill-opacity:1;stroke:none;"
       id="text14"
       xml:space="preserve" />
    <text
       id="text22"
       y="926.34753"
       x="616.48059"
       style="font-style:normal;font-variant:normal;font-weight:600;font-stretch:normal;font-size:75.7903px;line-height:1.05;font-family:'Source Sans Pro';-inkscape-font-specification:'Source Sans Pro Semi-Bold';text-align:center;text-anchor:middle;fill:#008000;fill-opacity:1;stroke:none;stroke-width:0.394741"
       xml:space="preserve"><tspan
         sodipodi:role="line"
         id="tspan24"
         style="font-style:normal;font-variant:normal;font-weight:600;font-stretch:normal;font-size:75.7903px;font-family:'Source Sans Pro';-inkscape-font-specification:'Source Sans Pro Semi-Bold';text-align:center;text-anchor:middle;fill:#008000;stroke-width:0.394741"
         y="926.34753"
         x="616.48059">GREEN HEART</tspan><tspan
         sodipodi:role="line"
         id="tspan28"
         style="font-style:normal;font-variant:normal;font-weight:600;font-stretch:normal;font-size:75.7903px;font-family:'Source Sans Pro';-inkscape-font-specification:'Source Sans Pro Semi-Bold';text-align:center;text-anchor:middle;fill:#008000;stroke-width:0.394741"
         y="1005.9274"
         x="616.48059">TECHNOLOGY</tspan></text>
    <text
       transform="translate(-3.153758,45.729491)"
       style="font-style:normal;font-weight:normal;font-size:10.5833px;line-height:1.25;font-family:sans-serif;white-space:pre;shape-inside:url(#rect32);fill:#000000;fill-opacity:1;stroke:none;"
       id="text30"
       xml:space="preserve" />
    <path
       id="path1993"
       d="m 137.92112,848.42574 c 0,-1.70428 173.42183,-364.12238 174.23736,-364.12238 0.48293,0 13.76017,27.48299 29.50501,61.07332 15.74483,33.59032 28.963,61.0733 29.37372,61.0733 0.41072,0 53.79951,-111.14955 118.64178,-246.99902 l 117.89502,-246.99904 82.90223,174.71606 82.90223,174.71607 35.2723,-73.74705 35.2723,-73.74706 126.15082,266.00442 c 69.38311,146.30244 126.37221,266.63406 126.64271,267.40358 0.2928,0.83293 -193.61109,1.39914 -479.15188,1.39914 -263.80398,0 -479.6436,-0.3471 -479.6436,-0.77134 z"
       style="fill:#000000;stroke-width:1.51039" />
    <path
       id="path2009"
       d="m 565.87768,675.54562 c -45.34084,-45.54677 -51.25055,-51.90441 -54.94489,-59.10955 -5.48622,-10.6999 -7.79613,-20.16036 -7.79613,-31.92982 0,-18.13115 6.70079,-34.29676 19.33992,-46.6574 12.92604,-12.64125 28.36519,-18.87144 46.7656,-18.87144 16.41293,0 29.14679,4.27556 42.0217,14.10935 l 6.05512,4.62488 6.05515,-4.62488 c 12.87493,-9.83379 25.60878,-14.10935 42.02172,-14.10935 18.41283,0 34.21407,6.38285 46.93971,18.96114 12.48013,12.33567 19.16578,28.57993 19.16578,46.5677 0,11.76946 -2.30987,21.22992 -7.79615,31.92982 -3.69428,7.20514 -9.604,13.56278 -54.94488,59.10955 -27.9429,28.06982 -51.09152,51.03605 -51.44133,51.03605 -0.34979,0 -23.49839,-22.96623 -51.44132,-51.03605 z"
       style="fill:#008000;stroke-width:1.15336" />
  </g>
</svg>
